<svg width="229" height="31" viewBox="0 0 229 31" fill="none" xmlns="http://www.w3.org/2000/svg">
<path d="M9.864 30.36C8.376 30.36 6.996 30.012 5.724 29.316C4.476 28.596 3.468 27.588 2.7 26.292C1.956 24.972 1.584 23.436 1.584 21.684C1.584 19.068 2.316 16.98 3.78 15.42C5.244 13.836 7.224 13.044 9.72 13.044C11.112 13.044 12.384 13.392 13.536 14.088C14.688 14.76 15.468 15.576 15.876 16.536L15.696 13.728V3.54H19.512V30H15.804L15.732 27.084C15.324 27.948 14.58 28.716 13.5 29.388C12.42 30.036 11.208 30.36 9.864 30.36ZM10.512 27.084C11.88 27.084 13.032 26.616 13.968 25.68C14.904 24.72 15.372 23.472 15.372 21.936V21.684C15.372 20.652 15.156 19.728 14.724 18.912C14.292 18.096 13.704 17.46 12.96 17.004C12.216 16.548 11.4 16.32 10.512 16.32C8.976 16.32 7.788 16.824 6.948 17.832C6.108 18.816 5.688 20.1 5.688 21.684C5.688 23.292 6.096 24.6 6.912 25.608C7.752 26.592 8.952 27.084 10.512 27.084ZM31.9773 30.36C30.4893 30.36 29.1093 30.012 27.8373 29.316C26.5893 28.596 25.5813 27.588 24.8133 26.292C24.0693 24.972 23.6973 23.436 23.6973 21.684C23.6973 19.956 24.0213 18.444 24.6693 17.148C25.3413 15.852 26.2893 14.844 27.5133 14.124C28.7373 13.404 30.1773 13.044 31.8333 13.044C32.7933 13.044 33.6933 13.212 34.5333 13.548C35.3733 13.884 36.0813 14.304 36.6573 14.808C37.2333 15.288 37.6173 15.768 37.8093 16.248L37.8813 13.476H41.5893V30H37.9173L37.8453 27.084C37.4373 27.948 36.6933 28.716 35.6133 29.388C34.5333 30.036 33.3213 30.36 31.9773 30.36ZM32.6253 27.12C33.9933 27.12 35.1453 26.652 36.0813 25.716C37.0173 24.756 37.4853 23.508 37.4853 21.972V21.72C37.4853 20.688 37.2693 19.764 36.8373 18.948C36.4053 18.132 35.8173 17.496 35.0733 17.04C34.3293 16.584 33.5133 16.356 32.6253 16.356C31.0893 16.356 29.9013 16.86 29.0613 17.868C28.2213 18.852 27.8013 20.136 27.8013 21.72C27.8013 23.328 28.2093 24.636 29.0253 25.644C29.8653 26.628 31.0653 27.12 32.6253 27.12ZM44.1897 13.476H48.6177L52.1817 20.928L53.3337 23.916L54.4857 20.928L58.0137 13.476H62.3337L53.6577 30H52.9017L44.1897 13.476ZM65.1057 13.476H69.1377V30H65.1057V13.476ZM67.0857 10.38C66.3417 10.38 65.7177 10.128 65.2137 9.624C64.7097 9.12 64.4577 8.496 64.4577 7.752C64.4577 7.08 64.7097 6.504 65.2137 6.024C65.7177 5.544 66.3417 5.304 67.0857 5.304C67.8057 5.304 68.4177 5.544 68.9217 6.024C69.4257 6.504 69.6777 7.08 69.6777 7.752C69.6777 8.496 69.4257 9.12 68.9217 9.624C68.4417 10.128 67.8297 10.38 67.0857 10.38ZM81.8288 30.36C80.3408 30.36 78.9608 30.012 77.6888 29.316C76.4408 28.596 75.4328 27.588 74.6648 26.292C73.9208 24.972 73.5488 23.436 73.5488 21.684C73.5488 19.068 74.2808 16.98 75.7448 15.42C77.2088 13.836 79.1888 13.044 81.6848 13.044C83.0768 13.044 84.3488 13.392 85.5008 14.088C86.6528 14.76 87.4328 15.576 87.8408 16.536L87.6608 13.728V3.54H91.4768V30H87.7688L87.6968 27.084C87.2888 27.948 86.5448 28.716 85.4648 29.388C84.3848 30.036 83.1728 30.36 81.8288 30.36ZM82.4768 27.084C83.8448 27.084 84.9968 26.616 85.9328 25.68C86.8688 24.72 87.3368 23.472 87.3368 21.936V21.684C87.3368 20.652 87.1208 19.728 86.6888 18.912C86.2568 18.096 85.6688 17.46 84.9248 17.004C84.1808 16.548 83.3648 16.32 82.4768 16.32C80.9408 16.32 79.7528 16.824 78.9128 17.832C78.0728 18.816 77.6528 20.1 77.6528 21.684C77.6528 23.292 78.0608 24.6 78.8768 25.608C79.7168 26.592 80.9168 27.084 82.4768 27.084ZM104.446 30.36C102.478 30.36 100.834 29.976 99.5141 29.208C98.1941 28.416 97.2221 27.372 96.5981 26.076C95.9741 24.756 95.6621 23.316 95.6621 21.756C95.6621 20.004 96.0221 18.468 96.7421 17.148C97.4861 15.828 98.5061 14.82 99.8021 14.124C101.098 13.404 102.562 13.044 104.194 13.044C106.738 13.044 108.622 13.752 109.846 15.168C111.094 16.56 111.718 18.528 111.718 21.072C111.718 21.72 111.682 22.392 111.61 23.088H99.7301C99.9941 24.552 100.51 25.608 101.278 26.256C102.07 26.904 103.162 27.228 104.554 27.228C105.706 27.228 106.654 27.132 107.398 26.94C108.142 26.748 108.826 26.484 109.45 26.148L110.638 28.92C110.038 29.304 109.222 29.64 108.19 29.928C107.158 30.216 105.91 30.36 104.446 30.36ZM107.938 20.388C107.962 18.9 107.638 17.856 106.966 17.256C106.294 16.632 105.334 16.32 104.086 16.32C101.566 16.32 100.114 17.676 99.7301 20.388H107.938Z" fill="#156697"/>
<path d="M116.556 13.476H120.444V16.464C120.972 15.336 121.74 14.484 122.748 13.908C123.78 13.332 124.956 13.044 126.276 13.044C129.228 13.068 131.04 14.088 131.712 16.104C132.24 15.168 133.032 14.424 134.088 13.872C135.144 13.32 136.26 13.044 137.436 13.044C139.164 13.044 140.472 13.38 141.36 14.052C142.248 14.7 142.836 15.636 143.124 16.86C143.436 18.06 143.592 19.68 143.592 21.72V30H139.668V21.684C139.668 19.74 139.464 18.348 139.056 17.508C138.672 16.668 137.916 16.248 136.788 16.248C135.276 16.248 134.124 16.764 133.332 17.796C132.564 18.804 132.18 20.136 132.18 21.792V30H128.292V21.108C128.292 19.836 128.244 18.888 128.148 18.264C128.052 17.64 127.788 17.148 127.356 16.788C126.924 16.428 126.228 16.248 125.268 16.248C124.428 16.248 123.636 16.5 122.892 17.004C122.172 17.508 121.584 18.192 121.128 19.056C120.696 19.896 120.48 20.808 120.48 21.792V30H116.556V13.476ZM156.252 30.36C154.548 30.36 153.036 29.976 151.716 29.208C150.396 28.44 149.376 27.396 148.656 26.076C147.936 24.756 147.576 23.292 147.576 21.684C147.576 20.1 147.924 18.648 148.62 17.328C149.34 16.008 150.36 14.964 151.68 14.196C153 13.428 154.524 13.044 156.252 13.044C157.98 13.044 159.492 13.428 160.788 14.196C162.108 14.964 163.116 16.008 163.812 17.328C164.532 18.648 164.892 20.1 164.892 21.684C164.892 23.292 164.532 24.756 163.812 26.076C163.092 27.396 162.072 28.44 160.752 29.208C159.456 29.976 157.956 30.36 156.252 30.36ZM156.36 27.192C157.752 27.192 158.844 26.676 159.636 25.644C160.452 24.612 160.86 23.316 160.86 21.756C160.86 20.196 160.428 18.888 159.564 17.832C158.7 16.752 157.56 16.212 156.144 16.212C154.776 16.212 153.672 16.74 152.832 17.796C152.016 18.852 151.608 20.172 151.608 21.756C151.608 23.292 152.052 24.588 152.94 25.644C153.828 26.676 154.968 27.192 156.36 27.192ZM169.368 3.54H173.22V30H169.368V3.54ZM178.965 13.476H182.997V30H178.965V13.476ZM180.945 10.38C180.201 10.38 179.577 10.128 179.073 9.624C178.569 9.12 178.317 8.496 178.317 7.752C178.317 7.08 178.569 6.504 179.073 6.024C179.577 5.544 180.201 5.304 180.945 5.304C181.665 5.304 182.277 5.544 182.781 6.024C183.285 6.504 183.537 7.08 183.537 7.752C183.537 8.496 183.285 9.12 182.781 9.624C182.301 10.128 181.689 10.38 180.945 10.38ZM188.38 13.476H192.196L192.232 16.5C192.688 15.492 193.408 14.664 194.392 14.016C195.376 13.368 196.528 13.044 197.848 13.044C199.552 13.044 200.86 13.404 201.772 14.124C202.684 14.82 203.296 15.804 203.608 17.076C203.92 18.348 204.076 20.004 204.076 22.044V30H200.188V22.152C200.188 20.064 199.984 18.564 199.576 17.652C199.168 16.716 198.328 16.248 197.056 16.248C196.336 16.248 195.604 16.476 194.86 16.932C194.116 17.364 193.492 18 192.988 18.84C192.508 19.68 192.268 20.664 192.268 21.792V30H188.38V13.476Z" fill="#FF7B0A"/>
</svg>
