<svg width="45" height="26" viewBox="0 0 45 26" fill="none" xmlns="http://www.w3.org/2000/svg">
<rect x="6" y="1" width="33" height="22" stroke="#156697" stroke-width="2"/>
<rect y="23" width="45" height="3" fill="#156697"/>
<rect x="44" y="25" width="1" height="1" fill="#C4C4C4"/>
<rect y="25" width="1" height="1" fill="#C4C4C4"/>
<path d="M15.082 16.9307C15.082 17.5505 14.8496 18.0632 14.3848 18.4688C13.9199 18.8698 13.2705 19.1227 12.4365 19.2275V20.8135H11.5547V19.2891C11.0443 19.2891 10.5498 19.2503 10.0713 19.1729C9.59277 19.0908 9.20085 18.9792 8.89551 18.8379V17.7715C9.27376 17.9401 9.70898 18.0791 10.2012 18.1885C10.6979 18.2933 11.1491 18.3457 11.5547 18.3457V15.3379C10.6204 15.0417 9.96419 14.6976 9.58594 14.3057C9.21224 13.9137 9.02539 13.4079 9.02539 12.7881C9.02539 12.1911 9.25553 11.7012 9.71582 11.3184C10.1807 10.9355 10.7936 10.7031 11.5547 10.6211V9.37695H12.4365V10.6074C13.2751 10.6302 14.084 10.7988 14.8633 11.1133L14.5078 12.0088C13.8288 11.7399 13.1383 11.5804 12.4365 11.5303V14.4971C13.152 14.7249 13.6875 14.9482 14.043 15.167C14.3984 15.3812 14.6605 15.6296 14.8291 15.9121C14.9977 16.1901 15.082 16.5296 15.082 16.9307ZM13.9199 17.0195C13.9199 16.6914 13.8174 16.4271 13.6123 16.2266C13.4118 16.0215 13.0199 15.8187 12.4365 15.6182V18.2773C13.4255 18.1406 13.9199 17.7214 13.9199 17.0195ZM10.1807 12.7744C10.1807 13.1208 10.2832 13.3988 10.4883 13.6084C10.6934 13.818 11.0488 14.0163 11.5547 14.2031V11.5576C11.1035 11.6305 10.7617 11.7741 10.5293 11.9883C10.2969 12.1979 10.1807 12.46 10.1807 12.7744Z" fill="#156697"/>
<rect x="16" y="20" width="7" height="1" fill="#156697"/>
<rect x="22" y="20" width="1" height="1" fill="#82A8C0"/>
</svg>
